# xmcd
#
# Track frame offsets:
#	150
#	14983
#	28319
#	45730
#	63059
#	80382
#	99577
#	119732
#	142415
#	162508
#	182924
#	200712
#	217842
#	231900
#	245357
#
# Disc length: 3562 seconds
#
# Revision: 1
# Processed by: cddbd v1.5.2PL0 Copyright (c) Steve Scherf et al.
# Submitted via: audiograbber 1.83.01
#
DISCID=e50de80f
DTITLE=Various Artist - 100% R&B [CD1]
DYEAR=2009
DGENRE=R&B
TTITLE0=Ryze Ft. Harvey - Sexy Body [2 Play Remix]
TTITLE1=RMX Crew Ft. Ebon-E plus Ambush - Turn Me On
TTITLE2=Malik Yusef Ft. Common,Kanye West and JV - Wouldn't You Like to...
TTITLE3=M. Ben-Ari Ft. Akon - Miss Melody
TTITLE4=Will.i.am Ft. John Legend - Swing By My Way
TTITLE5=Roots Manuva - Witness (1 Hope)
TTITLE6=TQ - Right On
TTITLE7=DJ Jazzy Jeff Ft. Baby Blak and Pauly Yamz - For Da Love Of Da Game
TTITLE8=Don-E Ft. Mutya Buena - The Time Is Now
TTITLE9=The Dre Allen Project Ft. Dawn Robinson - Fly
TTITLE10=Gerideau - Masquerade [MJ Cole Vocal Mix]
TTITLE11=Colours Ft. Steven Emmanuel and Eska - What U Do
TTITLE12=The B15 Project Ft. Crissy D and Lady G - Girls Like Us
TTITLE13=Platnum - Love Shy (Thinking About You) [Virgo vs Agent X Club Mix]
TTITLE14=Big Ange vs Becky Rhodes - Angry
EXTD=
EXTT0=
EXTT1=
EXTT2=
EXTT3=
EXTT4=
EXTT5=
EXTT6=
EXTT7=
EXTT8=
EXTT9=
EXTT10=
EXTT11=
EXTT12=
EXTT13=
EXTT14=
PLAYORDER=
